<svg xmlns="http://www.w3.org/2000/svg" xmlns:xlink="http://www.w3.org/1999/xlink" xmlns:s="https://github.com/nturley/netlistsvg" width="415" height="252">
  <style>svg {
    stroke:#000;
    fill:none;
  }
  text {
    fill:#000;
    stroke:none;
    font-size:10px;
    font-weight: bold;
    font-family: "Courier New", monospace;
  }
  .nodelabel {
    text-anchor: middle;
  }
  .inputPortLabel {
    text-anchor: end;
  }
  .splitjoinBody {
    fill:#000;
  }</style>
  <g s:type="generic" transform="translate(132,67)" s:width="30" s:height="40" id="cell_cpu0">
    <text x="15" y="-4" class="nodelabel cell_cpu0" s:attribute="ref">cpu</text>
    <rect width="30" height="100" s:generic="body" class="cell_cpu0"/>
    <g transform="translate(0,10)" s:x="0" s:y="10" s:pid="in0" id="port_cpu0~clk">
      <text x="-3" y="-4" class="inputPortLabel cell_cpu0">clk</text>
    </g>
    <g transform="translate(0,30)" s:x="0" s:y="10" s:pid="in0" id="port_cpu0~mem_rdata">
      <text x="-3" y="-4" class="inputPortLabel cell_cpu0">mem_rdata</text>
    </g>
    <g transform="translate(0,50)" s:x="0" s:y="10" s:pid="in0" id="port_cpu0~rst">
      <text x="-3" y="-4" class="inputPortLabel cell_cpu0">rst</text>
    </g>
    <g transform="translate(30,10)" s:x="30" s:y="10" s:pid="out0" id="port_cpu0~cycle">
      <text x="5" y="-4" style="fill:#000; stroke:none" class="cell_cpu0">cycle</text>
    </g>
    <g transform="translate(30,30)" s:x="30" s:y="10" s:pid="out0" id="port_cpu0~mem_addr">
      <text x="5" y="-4" style="fill:#000; stroke:none" class="cell_cpu0">mem_addr</text>
    </g>
    <g transform="translate(30,50)" s:x="30" s:y="10" s:pid="out0" id="port_cpu0~mem_rstrb">
      <text x="5" y="-4" style="fill:#000; stroke:none" class="cell_cpu0">mem_rstrb</text>
    </g>
    <g transform="translate(30,70)" s:x="30" s:y="10" s:pid="out0" id="port_cpu0~mem_wdata">
      <text x="5" y="-4" style="fill:#000; stroke:none" class="cell_cpu0">mem_wdata</text>
    </g>
    <g transform="translate(30,90)" s:x="30" s:y="10" s:pid="out0" id="port_cpu0~mem_wstrb">
      <text x="5" y="-4" style="fill:#000; stroke:none" class="cell_cpu0">mem_wstrb</text>
    </g>
  </g>
  <g s:type="generic" transform="translate(313,87)" s:width="30" s:height="40" id="cell_mem0">
    <text x="15" y="-4" class="nodelabel cell_mem0" s:attribute="ref">progmem</text>
    <rect width="30" height="120" s:generic="body" class="cell_mem0"/>
    <g transform="translate(0,10)" s:x="0" s:y="10" s:pid="in0" id="port_mem0~addr">
      <text x="-3" y="-4" class="inputPortLabel cell_mem0">addr</text>
    </g>
    <g transform="translate(0,30)" s:x="0" s:y="10" s:pid="in0" id="port_mem0~clk">
      <text x="-3" y="-4" class="inputPortLabel cell_mem0">clk</text>
    </g>
    <g transform="translate(0,50)" s:x="0" s:y="10" s:pid="in0" id="port_mem0~data_in">
      <text x="-3" y="-4" class="inputPortLabel cell_mem0">data_in</text>
    </g>
    <g transform="translate(0,70)" s:x="0" s:y="10" s:pid="in0" id="port_mem0~rd_strobe">
      <text x="-3" y="-4" class="inputPortLabel cell_mem0">rd_strobe</text>
    </g>
    <g transform="translate(0,90)" s:x="0" s:y="10" s:pid="in0" id="port_mem0~rst">
      <text x="-3" y="-4" class="inputPortLabel cell_mem0">rst</text>
    </g>
    <g transform="translate(0,110)" s:x="0" s:y="10" s:pid="in0" id="port_mem0~wr_strobe">
      <text x="-3" y="-4" class="inputPortLabel cell_mem0">wr_strobe</text>
    </g>
    <g transform="translate(30,10)" s:x="30" s:y="10" s:pid="out0" id="port_mem0~data_out">
      <text x="5" y="-4" style="fill:#000; stroke:none" class="cell_mem0">data_out</text>
    </g>
  </g>
  <g s:type="inputExt" transform="translate(12,220)" s:width="30" s:height="20" id="cell_rst">
    <text x="15" y="-4" class="nodelabel cell_rst" s:attribute="ref">rst</text>
    <s:alias val="$_inputExt_"/>
    <path d="M0,0 L0,20 L15,20 L30,10 L15,0 Z" class="cell_rst"/>
    <g s:x="28" s:y="10" s:pid="Y"/>
  </g>
  <g s:type="inputExt" transform="translate(12,67.5)" s:width="30" s:height="20" id="cell_clk">
    <text x="15" y="-4" class="nodelabel cell_clk" s:attribute="ref">clk</text>
    <s:alias val="$_inputExt_"/>
    <path d="M0,0 L0,20 L15,20 L30,10 L15,0 Z" class="cell_clk"/>
    <g s:x="28" s:y="10" s:pid="Y"/>
  </g>
  <g s:type="outputExt" transform="translate(313,22)" s:width="30" s:height="20" id="cell_cycle">
    <text x="15" y="-4" class="nodelabel cell_cycle" s:attribute="ref">cycle</text>
    <s:alias val="$_outputExt_"/>
    <path d="M30,0 L30,20 L15,20 L0,10 L15,0 Z" class="cell_cycle"/>
    <g s:x="0" s:y="10" s:pid="A"/>
  </g>
  <line x1="40" x2="132" y1="77.5" y2="77.5" class="net_3"/>
  <line x1="40" x2="52" y1="77.5" y2="77.5" class="net_3"/>
  <line x1="52" x2="52" y1="77.5" y2="46" class="net_3"/>
  <line x1="52" x2="248" y1="46" y2="46" class="net_3"/>
  <line x1="248" x2="248" y1="46" y2="117.5" class="net_3"/>
  <circle cx="52" cy="77.5" r="2" style="fill:#000" class="net_3"/>
  <line x1="248" x2="313" y1="117.5" y2="117.5" class="net_3"/>
  <line x1="344" x2="403" y1="97.5" y2="97.5" class="net_68,69,70,71,72,73,74,75,76,77,78,79,80,81,82,83,84,85,86,87,88,89,90,91,92,93,94,95,96,97,98,99"/>
  <line x1="403" x2="403" y1="97.5" y2="220" class="net_68,69,70,71,72,73,74,75,76,77,78,79,80,81,82,83,84,85,86,87,88,89,90,91,92,93,94,95,96,97,98,99"/>
  <line x1="403" x2="52" y1="220" y2="220" class="net_68,69,70,71,72,73,74,75,76,77,78,79,80,81,82,83,84,85,86,87,88,89,90,91,92,93,94,95,96,97,98,99"/>
  <line x1="52" x2="52" y1="220" y2="97.5" class="net_68,69,70,71,72,73,74,75,76,77,78,79,80,81,82,83,84,85,86,87,88,89,90,91,92,93,94,95,96,97,98,99"/>
  <line x1="52" x2="132" y1="97.5" y2="97.5" class="net_68,69,70,71,72,73,74,75,76,77,78,79,80,81,82,83,84,85,86,87,88,89,90,91,92,93,94,95,96,97,98,99"/>
  <line x1="40" x2="62" y1="230" y2="230" class="net_2"/>
  <line x1="62" x2="62" y1="230" y2="117.5" class="net_2"/>
  <circle cx="62" cy="230" r="2" style="fill:#000" class="net_2"/>
  <line x1="62" x2="132" y1="117.5" y2="117.5" class="net_2"/>
  <line x1="40" x2="238" y1="230" y2="230" class="net_2"/>
  <line x1="238" x2="238" y1="230" y2="177.5" class="net_2"/>
  <line x1="238" x2="313" y1="177.5" y2="177.5" class="net_2"/>
  <line x1="163" x2="313" y1="97.5" y2="97.5" class="net_36,37,38,39,40,41,42,43,44,45,46,47,48,49,50,51,52,53,54,55,56,57,58,59,60,61,62,63,64,65,66,67"/>
  <line x1="163" x2="313" y1="137.5" y2="137.5" class="net_101,102,103,104,105,106,107,108,109,110,111,112,113,114,115,116,117,118,119,120,121,122,123,124,125,126,127,128,129,130,131,132"/>
  <line x1="163" x2="238" y1="117.5" y2="117.5" class="net_100"/>
  <line x1="238" x2="238" y1="117.5" y2="157.5" class="net_100"/>
  <line x1="238" x2="313" y1="157.5" y2="157.5" class="net_100"/>
  <line x1="163" x2="228" y1="157.5" y2="157.5" class="net_133,134,135,136"/>
  <line x1="228" x2="228" y1="157.5" y2="197.5" class="net_133,134,135,136"/>
  <line x1="228" x2="313" y1="197.5" y2="197.5" class="net_133,134,135,136"/>
  <line x1="163" x2="228" y1="77.5" y2="77.5" class="net_4,5,6,7,8,9,10,11,12,13,14,15,16,17,18,19,20,21,22,23,24,25,26,27,28,29,30,31,32,33,34,35"/>
  <line x1="228" x2="228" y1="77.5" y2="32" class="net_4,5,6,7,8,9,10,11,12,13,14,15,16,17,18,19,20,21,22,23,24,25,26,27,28,29,30,31,32,33,34,35"/>
  <line x1="228" x2="313" y1="32" y2="32" class="net_4,5,6,7,8,9,10,11,12,13,14,15,16,17,18,19,20,21,22,23,24,25,26,27,28,29,30,31,32,33,34,35"/>
</svg>
